<svg width="24" height="24" viewBox="0 0 24 24" fill="none" xmlns="http://www.w3.org/2000/svg">
<path d="M20.9514 3.12563C20.2366 2.39302 19.0819 2.35641 18.3232 3.04195L12.0682 8.66038H3.42394C2.95228 8.66038 2.56885 9.04399 2.56885 9.51548V9.81266C2.56885 10.1862 2.8111 10.5013 3.14583 10.6174C3.07515 11.7598 2.95778 17.2699 6.94983 19.6737C6.78449 19.8298 6.67993 20.0492 6.67993 20.2938V20.591C6.67993 21.0626 7.06372 21.4461 7.53503 21.4461H16.4947C16.9664 21.4461 17.3498 21.0625 17.3498 20.591V20.2938C17.3498 20.0492 17.2453 19.8295 17.0799 19.6737C21.0722 17.27 20.9546 11.7597 20.8839 10.6174C21.2186 10.5011 21.4609 10.1864 21.4609 9.81266V9.51548C21.4609 9.04382 21.0771 8.66038 20.6058 8.66038H18.2146L20.9702 5.75559C21.6744 5.01271 21.6663 3.85752 20.9515 3.12548L20.9514 3.12563ZM16.8777 20.5913C16.8777 20.8024 16.706 20.9741 16.4948 20.9741H7.53516C7.32404 20.9741 7.15229 20.8022 7.15229 20.5913V20.2941C7.15229 20.083 7.32404 19.9112 7.53516 19.9112H16.4948C16.706 19.9112 16.8777 20.0831 16.8777 20.2941V20.5913ZM16.5315 19.4426C16.519 19.4421 16.5073 19.4388 16.4947 19.4388H7.53498C7.52253 19.4388 7.51063 19.4419 7.49817 19.4426C3.43856 17.2917 3.54638 11.8062 3.61542 10.6676H20.4145C20.4844 11.8058 20.5959 17.2892 16.5315 19.4426H16.5315ZM20.9888 9.51591V9.81309C20.9888 10.0242 20.8171 10.196 20.6059 10.196L3.42391 10.1958C3.21279 10.1958 3.04103 10.0238 3.04103 9.8129V9.51573C3.04103 9.30461 3.21279 9.13285 3.42391 9.13285H20.6064C20.8173 9.13303 20.9889 9.30497 20.9889 9.51591L20.9888 9.51591ZM17.5637 8.66082H12.7754L18.6399 3.393C19.2105 2.87775 20.0777 2.9056 20.614 3.45526C21.1508 4.00529 21.1569 4.87266 20.6279 5.43024L17.5637 8.66082Z" fill="black" fill-opacity="0.6"/>
<path d="M15.4204 11.5214C15.3722 11.4813 15.3101 11.4621 15.247 11.4681C15.1521 11.4771 12.9116 11.6998 12.1378 12.6311C11.9794 12.8219 11.8593 13.0526 11.7773 13.3168C10.456 12.8109 8.7526 12.7618 8.65702 12.7592C8.53379 12.7623 8.41843 12.8594 8.41513 12.9897C8.41184 13.1179 8.35086 16.1456 9.45993 17.3101C10.1872 18.0739 11.345 18.2399 12.2142 18.2399C12.8494 18.2399 13.3306 18.1513 13.3758 18.1427C13.3855 18.1409 13.3943 18.1363 13.4035 18.1332C13.4108 18.1308 13.4181 18.129 13.4253 18.1257C13.4503 18.1149 13.4732 18.101 13.4928 18.0825C13.4934 18.0819 13.4939 18.0817 13.4945 18.0814C13.4963 18.0795 13.4969 18.0772 13.4987 18.0751C13.5161 18.0574 13.5302 18.0369 13.5412 18.0142C13.5446 18.007 13.5478 18.0002 13.5507 17.9927C13.5531 17.9863 13.5569 17.981 13.5587 17.9742C13.5778 17.9059 13.8733 16.8245 13.695 15.6924C14.2218 15.5519 14.638 15.3038 14.9307 14.9513C15.7042 14.0206 15.5126 11.7774 15.5042 11.682C15.4989 11.6194 15.4687 11.5615 15.4204 11.5214ZM12.5013 12.9326C12.8997 12.4532 13.909 12.1705 14.6484 12.0326L12.8659 13.9602C12.6859 13.786 12.4631 13.6368 12.2131 13.5096C12.2776 13.2823 12.3728 13.0875 12.5013 12.9326ZM13.1927 17.4219L9.22995 13.2686C10.142 13.3493 11.8725 13.5973 12.5791 14.339C13.4278 15.2307 13.3136 16.7019 13.1927 17.4219ZM9.80178 16.984C9.10067 16.2473 8.93478 14.5241 8.89705 13.6042L12.8386 17.7354C12.0924 17.8043 10.5985 17.8202 9.80178 16.984ZM14.568 14.6495C14.3434 14.92 14.0123 15.1106 13.5932 15.2265C13.5034 14.9125 13.3683 14.6049 13.1728 14.3242L15.0587 12.2847C15.0661 13.041 14.9822 14.1508 14.568 14.6495Z" fill="black" fill-opacity="0.6"/>
</svg>
