<svg width="35" height="35" viewBox="0 0 35 35" fill="none" xmlns="http://www.w3.org/2000/svg">
<path d="M28.8024 16.0417V14.5834C28.8024 9.08369 28.8024 6.33384 27.0938 4.62529C25.3852 2.91675 22.6354 2.91675 17.1357 2.91675H15.6775C10.1778 2.91675 7.42795 2.91675 5.71941 4.62527C4.01087 6.3338 4.01084 9.08363 4.0108 14.5833L4.01074 20.4167C4.0107 25.9164 4.01068 28.6662 5.71917 30.3748C7.42771 32.0833 10.1777 32.0834 15.6774 32.0834" stroke="#D1FCCC" stroke-width="1.5" stroke-linecap="round" stroke-linejoin="round"/>
<path d="M10.5732 10.2083H22.2399M10.5732 17.4999H22.2399" stroke="#D1FCCC" stroke-width="1.5" stroke-linecap="round"/>
<path d="M19.3232 30.3725V32.0834H21.0345C21.6315 32.0834 21.93 32.0834 22.1983 31.9723C22.4668 31.861 22.6778 31.65 23.1 31.228L30.1345 24.193C30.5326 23.7948 30.7316 23.5958 30.8381 23.3811C31.0407 22.9725 31.0407 22.4928 30.8381 22.0842C30.7316 21.8694 30.5326 21.6703 30.1345 21.2722C29.7362 20.8741 29.5371 20.675 29.3223 20.5686C28.9137 20.3661 28.4339 20.3661 28.0253 20.5686C27.8106 20.675 27.6114 20.8741 27.2133 21.2722L20.1788 28.3072C19.7568 28.7292 19.5456 28.9403 19.4345 29.2086C19.3232 29.4771 19.3232 29.7755 19.3232 30.3725Z" stroke="#D1FCCC" stroke-width="1.5" stroke-linejoin="round"/>
</svg>
