<svg width="35" height="35" viewBox="0 0 35 35" fill="none" xmlns="http://www.w3.org/2000/svg">
<path d="M26.2498 21.875V13.125C26.2498 9.00021 26.2498 6.93782 24.9684 5.65641C23.687 4.375 21.6246 4.375 17.4998 4.375H11.6665C7.54171 4.375 5.47932 4.375 4.19791 5.65641C2.9165 6.93782 2.9165 9.00021 2.9165 13.125V21.875C2.9165 25.9998 2.9165 28.0621 4.19791 29.3436C5.47932 30.625 7.54171 30.625 11.6665 30.625H29.1665" stroke="#D1FCCC" stroke-width="2.1875" stroke-linecap="round" stroke-linejoin="round"/>
<path d="M8.75 11.6667H20.4167" stroke="#D1FCCC" stroke-width="2.1875" stroke-linecap="round" stroke-linejoin="round"/>
<path d="M8.75 17.5H20.4167" stroke="#D1FCCC" stroke-width="2.1875" stroke-linecap="round" stroke-linejoin="round"/>
<path d="M8.75 23.3333H14.5833" stroke="#D1FCCC" stroke-width="2.1875" stroke-linecap="round" stroke-linejoin="round"/>
<path d="M26.25 11.6667H27.7083C29.7707 11.6667 30.8019 11.6667 31.4427 12.3075C32.0833 12.9482 32.0833 13.9794 32.0833 16.0417V27.7084C32.0833 29.3193 30.7775 30.6251 29.1667 30.6251C27.5558 30.6251 26.25 29.3193 26.25 27.7084V11.6667Z" stroke="#D1FCCC" stroke-width="2.1875" stroke-linecap="round" stroke-linejoin="round"/>
</svg>
