<svg width="50" height="50" viewBox="0 0 50 50" fill="none" xmlns="http://www.w3.org/2000/svg">
<path d="M37.4987 37.5C40.0918 38.3842 41.6654 39.5456 41.6654 40.8177C41.6654 43.5877 34.2035 45.8333 24.9987 45.8333C15.7939 45.8333 8.33203 43.5877 8.33203 40.8177C8.33203 39.5456 9.90551 38.3842 12.4987 37.5" stroke="#79B531" stroke-linecap="round"/>
<path d="M31.25 19.7917C31.25 23.2436 28.4519 26.0417 25 26.0417C21.5481 26.0417 18.75 23.2436 18.75 19.7917C18.75 16.34 21.5481 13.5417 25 13.5417C28.4519 13.5417 31.25 16.34 31.25 19.7917Z" stroke="#79B531"/>
<path d="M25 4.16675C33.4558 4.16675 40.625 11.3085 40.625 19.9728C40.625 28.7751 33.3392 34.9522 26.6094 39.1526C26.119 39.4349 25.5644 39.5834 25 39.5834C24.4356 39.5834 23.881 39.4349 23.3906 39.1526C16.6734 34.9111 9.375 28.8055 9.375 19.9728C9.375 11.3085 16.5442 4.16675 25 4.16675Z" stroke="#79B531"/>
</svg>
