<svg width="50" height="50" viewBox="0 0 50 50" fill="none" xmlns="http://www.w3.org/2000/svg">
<path d="M4.16797 12.5L18.5701 20.6604C23.8796 23.6688 26.123 23.6688 31.4326 20.6604L45.8346 12.5" stroke="#79B531" stroke-linejoin="round"/>
<path d="M4.20082 28.0743C4.33701 34.4609 4.40511 37.654 6.76164 40.0197C9.11814 42.3851 12.3978 42.4674 18.9572 42.6322C22.9998 42.7338 27.0028 42.7338 31.0455 42.6322C37.6048 42.4674 40.8844 42.3851 43.2411 40.0197C45.5976 37.654 45.6657 34.4609 45.8017 28.0743C45.8457 26.0207 45.8457 23.9795 45.8017 21.9259C45.6657 15.5394 45.5976 12.3461 43.2411 9.98063C40.8844 7.61515 37.6048 7.53275 31.0455 7.36794C27.0028 7.26635 22.9998 7.26635 18.9572 7.36792C12.3978 7.53271 9.11814 7.6151 6.76161 9.9806C4.40509 12.3461 4.33701 15.5394 4.2008 21.9259C4.15701 23.9795 4.15703 26.0207 4.20082 28.0743Z" stroke="#79B531" stroke-linejoin="round"/>
</svg>
