<svg width="50" height="50" viewBox="0 0 50 50" fill="none" xmlns="http://www.w3.org/2000/svg">
<path d="M19.0797 11.9002L18.2408 10.0128C17.6923 8.77867 17.4181 8.16159 17.0079 7.68936C16.4939 7.09755 15.8239 6.66213 15.0743 6.43278C14.4762 6.24976 13.801 6.24976 12.4504 6.24976C10.4748 6.24976 9.48699 6.24976 8.65777 6.62953C7.68097 7.07688 6.79883 8.04826 6.44735 9.06351C6.14897 9.92536 6.23445 10.8111 6.40537 12.5825C8.22481 31.4376 18.5621 41.7749 37.4172 43.5945C39.1887 43.7653 40.0745 43.8507 40.9362 43.5524C41.9516 43.2009 42.9228 42.3188 43.3703 41.342C43.7499 40.5128 43.7499 39.5249 43.7499 37.5493C43.7499 36.1988 43.7499 35.5236 43.567 34.9255C43.3376 34.1759 42.9022 33.5059 42.3103 32.9918C41.8382 32.5818 41.2212 32.3074 39.987 31.7588L38.0995 30.9201C36.763 30.3261 36.0947 30.0291 35.4157 29.9645C34.7657 29.9026 34.1105 29.9938 33.5022 30.2307C32.8666 30.4782 32.3049 30.9463 31.1812 31.8828C30.0628 32.8147 29.5037 33.2807 28.8203 33.5303C28.2145 33.7518 27.4137 33.8336 26.7757 33.7397C26.056 33.6336 25.5049 33.3391 24.4026 32.7501C20.9735 30.9174 19.0823 29.0263 17.2497 25.5972C16.6607 24.4949 16.3662 23.9438 16.2601 23.224C16.1661 22.5861 16.2481 21.7853 16.4694 21.1795C16.719 20.4962 17.185 19.937 18.1171 18.8185C19.0534 17.6949 19.5215 17.1331 19.7691 16.4975C20.0059 15.8892 20.0971 15.2339 20.0353 14.5841C19.9707 13.905 19.6737 13.2368 19.0797 11.9002Z" stroke="#79B531" stroke-linecap="round"/>
</svg>
