<svg width="24" height="24" viewBox="0 0 24 24" fill="none" xmlns="http://www.w3.org/2000/svg">
<path d="M17.8996 15.9215C18.2971 13.508 18.4401 11.3201 18.4401 10.0664C18.4401 5.92379 15.551 2.55371 11.9999 2.55371C8.44857 2.55371 5.55976 5.9236 5.55976 10.0659C5.55976 11.3176 5.70386 13.5024 6.10449 15.9197C3.72155 16.6867 2.55371 18.4368 2.55371 21.21C2.55371 21.3403 2.65936 21.4462 2.78992 21.4462H21.2104C21.3409 21.4462 21.4466 21.3405 21.4466 21.21C21.4464 18.4383 20.2798 16.6887 17.8997 15.9211L17.8996 15.9215ZM6.03174 10.0659C6.03174 6.18409 8.70873 3.02574 11.9999 3.02574C15.2906 3.02574 17.968 6.18395 17.968 10.0659C17.968 11.2918 17.8288 13.4272 17.4423 15.7912C16.6626 15.5922 15.7673 15.486 14.755 15.4719V13.6117C16.0161 12.7013 16.8893 11.1865 17.004 9.43616V9.43597C17.0287 9.05713 16.917 8.69493 16.6901 8.41607C16.3918 8.05004 15.8052 7.56847 14.7042 7.35224C13.6497 7.14533 13.4076 5.6166 13.4052 5.60122C13.388 5.48623 13.2895 5.40073 13.1732 5.39999H13.1716C13.056 5.39999 12.9573 5.48367 12.9385 5.59793C12.7402 6.80918 10.7496 7.51502 9.44957 7.53996C8.51976 7.5579 7.84373 8.03618 7.44055 8.43424C7.13989 8.73124 6.98883 9.1458 7.02637 9.57204C7.17706 11.2804 8.02537 12.7304 9.24506 13.6114V15.4719C8.23467 15.4861 7.34095 15.5918 6.56221 15.7901C6.17275 13.4224 6.03211 11.2899 6.03211 10.0662L6.03174 10.0659ZM12.0097 14.0464C9.66395 14.0464 7.72374 12.105 7.49654 9.53049C7.47182 9.24924 7.57473 8.96509 7.77193 8.77041C8.11397 8.43277 8.68435 8.02721 9.45849 8.01235C10.6635 7.9891 12.4345 7.45276 13.1311 6.37266C13.3462 6.93409 13.7794 7.65221 14.6131 7.8159C15.5757 8.00486 16.0747 8.40877 16.3237 8.71459C16.4751 8.90044 16.5492 9.1458 16.5324 9.40524C16.3621 12.0077 14.3754 14.0464 12.0097 14.0464ZM14.2824 13.917V15.5677C13.2164 16.1703 10.9003 16.2737 9.71687 15.5701V13.9161C10.4046 14.3013 11.1837 14.5188 12.0095 14.5188C12.8242 14.5188 13.5976 14.3017 14.2824 13.917ZM3.02865 20.974C3.11727 17.5606 5.15232 15.9584 9.41115 15.941C10.7502 16.7848 13.395 16.6607 14.5866 15.941C18.8469 15.9579 20.8829 17.5599 20.9715 20.974H3.02865Z" fill="black" fill-opacity="0.6"/>
<path d="M16.6525 18.2213H15.8981V17.4669C15.8981 17.3366 15.7924 17.2307 15.6619 17.2307C15.5313 17.2307 15.4257 17.3364 15.4257 17.4669V18.2213H14.6713C14.5407 18.2213 14.4351 18.327 14.4351 18.4575C14.4351 18.5879 14.5407 18.6937 14.6713 18.6937H15.4257V19.448C15.4257 19.5783 15.5313 19.6842 15.6619 19.6842C15.7924 19.6842 15.8981 19.5785 15.8981 19.448V18.6937H16.6525C16.7831 18.6937 16.8887 18.5881 16.8887 18.4575C16.8885 18.3272 16.7829 18.2213 16.6525 18.2213Z" fill="black" fill-opacity="0.6"/>
</svg>
