<svg width="24" height="24" viewBox="0 0 24 24" fill="none" xmlns="http://www.w3.org/2000/svg">
<path d="M17.5093 14.6718C17.1475 14.6722 16.8005 14.8161 16.5447 15.0721C16.2888 15.3279 16.1448 15.6748 16.1445 16.0367V17.4708H11.9809V16.0367C11.9809 15.5451 11.7185 15.0906 11.2925 14.8448C10.8668 14.5989 10.3421 14.5989 9.91634 14.8448C9.49044 15.0906 9.22803 15.5451 9.22803 16.0367V20.8432C9.22858 21.2052 9.3725 21.5522 9.62848 21.808C9.88446 22.0638 10.2314 22.2077 10.5934 22.2081H10.6163C10.9783 22.2077 11.3253 22.0638 11.5811 21.808C11.8369 21.552 11.9808 21.2053 11.9812 20.8432V19.4097H16.1448V20.8432H16.145C16.1454 21.2052 16.2893 21.552 16.5451 21.808C16.8011 22.0638 17.1479 22.2077 17.5099 22.2081H17.5324C17.8944 22.2077 18.2414 22.0638 18.4972 21.808C18.7532 21.5522 18.8973 21.2053 18.8976 20.8432V16.0367C18.896 15.6712 18.7482 15.3216 18.4877 15.0653C18.2269 14.8091 17.8748 14.6674 17.5093 14.6718ZM11.5 20.8434C11.4998 21.0777 11.4066 21.3024 11.2409 21.4683C11.0752 21.634 10.8505 21.7272 10.6161 21.7276H10.5936C10.3592 21.7274 10.1344 21.6342 9.96867 21.4683C9.80295 21.3026 9.70958 21.0779 9.70939 20.8434V16.0368C9.71653 15.7217 9.88883 15.4337 10.1629 15.278C10.4371 15.1225 10.7727 15.1225 11.047 15.278C11.3211 15.4336 11.4932 15.7217 11.5003 16.0368V20.8434H11.5ZM11.9806 18.9286V17.9499H16.1442V18.9268L11.9806 18.9286ZM18.4161 20.8434C18.4157 21.0779 18.3225 21.3026 18.1568 21.4683C17.9909 21.6342 17.7663 21.7274 17.5319 21.7276H17.5092C17.2748 21.7274 17.0499 21.6342 16.8842 21.4683C16.7185 21.3026 16.6251 21.0779 16.625 20.8434V16.0368C16.6321 15.7217 16.8044 15.4337 17.0785 15.278C17.3526 15.1225 17.6885 15.1225 17.9625 15.278C18.2366 15.4336 18.4089 15.7217 18.4161 16.0368L18.4161 20.8434Z" fill="black" fill-opacity="0.6"/>
<path d="M21.548 5.57712H21.2182V4.97014C21.2178 4.60246 21.0715 4.25 20.8117 3.98998C20.5517 3.72997 20.1992 3.58367 19.8317 3.58331H19.0984L19.0982 3.17773C19.0978 2.81005 18.9515 2.45778 18.6915 2.19776C18.4315 1.93774 18.0789 1.79163 17.7112 1.79126H16.3847C16.252 1.79126 16.1443 1.89893 16.1443 2.0315V5.86719L7.85589 5.86737V2.03149C7.85589 1.89893 7.74822 1.79126 7.61565 1.79126H6.28815C5.92048 1.79163 5.56801 1.93774 5.308 2.19776C5.04798 2.45777 4.90168 2.81004 4.90114 3.17772V3.58312L4.16778 3.5833C3.8001 3.58367 3.44764 3.72997 3.18762 3.98998C2.92779 4.24999 2.78149 4.60245 2.78113 4.97014V5.57712H2.45227C2.08459 5.57749 1.73194 5.72379 1.47193 5.9838C1.21191 6.24381 1.0658 6.59645 1.06543 6.96414V7.44808C1.0658 7.81576 1.21191 8.16841 1.47193 8.42842C1.73194 8.68844 2.08458 8.83455 2.45227 8.83492H2.78204V9.44246C2.78241 9.81014 2.92871 10.1626 3.18872 10.4224C3.44855 10.6824 3.801 10.8286 4.16869 10.8289H4.90205V11.2345C4.9026 11.602 5.0489 11.9545 5.30891 12.2145C5.56892 12.4743 5.92138 12.6206 6.28907 12.621H7.61657C7.74914 12.621 7.8568 12.5133 7.8568 12.3806V8.54524H16.1452V12.3806C16.1452 12.5133 16.2529 12.621 16.3857 12.621H17.7132C18.0806 12.6206 18.4333 12.4743 18.6933 12.2145C18.9533 11.9545 19.0996 11.602 19.1 11.2345V10.8291H19.8334L19.8335 10.8289C20.201 10.8286 20.5535 10.6824 20.8135 10.4224C21.0733 10.1626 21.2196 9.81015 21.22 9.44246V8.83492H21.5479C21.9156 8.83455 22.2683 8.68843 22.5283 8.42842C22.7883 8.16841 22.9346 7.81577 22.935 7.44808V6.96414C22.9346 6.59646 22.7883 6.24381 22.5283 5.9838C22.2683 5.72379 21.9157 5.57749 21.548 5.57712ZM2.45203 8.35573C2.21198 8.35555 1.98164 8.25997 1.81172 8.09023C1.64198 7.92031 1.5464 7.68996 1.54621 7.44992V6.96415C1.5464 6.72392 1.64198 6.49376 1.81172 6.32384C1.98164 6.1541 2.21199 6.05852 2.45203 6.05833H2.78181V8.35577L2.45203 8.35573ZM4.16827 10.3497H4.16845C3.92821 10.3496 3.69806 10.254 3.52832 10.0842C3.3584 9.91451 3.26282 9.68434 3.26245 9.44431V4.97013C3.26318 4.73045 3.35877 4.50082 3.52851 4.33146C3.69806 4.16209 3.92786 4.06669 4.16755 4.06614H4.90091V10.3479L4.16827 10.3497ZM7.37536 12.1422H6.28791C6.04767 12.142 5.81733 12.0464 5.64759 11.8765C5.47767 11.7067 5.38227 11.4764 5.38191 11.2363V3.17759C5.38227 2.93754 5.47767 2.7072 5.64759 2.53728C5.81733 2.36754 6.04768 2.27196 6.28791 2.27178H7.37466V12.1427L7.37536 12.1422ZM7.85639 8.06661L7.85657 6.34798H16.145V8.06478L7.85639 8.06661ZM18.6189 11.2363H18.6191C18.6189 11.4764 18.5233 11.7067 18.3534 11.8765C18.1836 12.0464 17.9533 12.142 17.7133 12.1422H16.6251V2.27169H17.7123C17.9524 2.27187 18.1827 2.36745 18.3524 2.53719C18.5224 2.70711 18.618 2.93746 18.6181 3.1775V11.2344L18.6189 11.2363ZM20.7407 9.44445L20.7409 9.44427C20.7406 9.68432 20.645 9.91447 20.475 10.0842C20.3053 10.2539 20.075 10.3495 19.8349 10.3497H19.1016V4.06612H19.8349C20.0752 4.0663 20.3055 4.16188 20.4752 4.3318C20.6452 4.50154 20.7406 4.73189 20.7409 4.97193V9.4461L20.7407 9.44445ZM22.457 7.45006L22.4572 7.44988C22.457 7.69066 22.361 7.92139 22.1904 8.09132C22.0199 8.26124 21.7888 8.35627 21.548 8.35572H21.2183V6.05828H21.548C21.7883 6.05846 22.0184 6.15405 22.1884 6.32379C22.3581 6.49371 22.4537 6.72387 22.4539 6.9641L22.457 7.45006Z" fill="black" fill-opacity="0.6"/>
</svg>
