<svg width="24" height="24" viewBox="0 0 24 24" fill="none" xmlns="http://www.w3.org/2000/svg">
<path d="M3.20435 5.39776C2.92182 6.04083 3.05127 6.79154 3.55262 7.29273C3.83423 7.57452 4.2083 7.74536 4.60529 7.77943C4.63935 8.17659 4.81037 8.55066 5.09199 8.8321C5.42158 9.16169 5.85554 9.32612 6.2919 9.32612C6.73739 9.32612 7.18562 9.15473 7.52748 8.8127C7.6941 8.64607 7.82154 8.45125 7.90852 8.23829L8.61971 8.94948L8.24416 9.32502C7.98433 9.58467 7.84828 9.94429 7.87081 10.3112C7.89351 10.6793 8.07332 11.0202 8.35789 11.2419L14.4859 16.3654C14.7611 16.5955 15.0943 16.7092 15.4264 16.7092C15.8016 16.7092 16.1754 16.564 16.4621 16.2775C17.0109 15.7287 17.0361 14.845 16.5194 14.2659L11.2511 8.35963C11.0243 8.06886 10.6833 7.88905 10.3153 7.86637C9.94705 7.84366 9.58853 7.97989 9.32889 8.23972L8.95334 8.61527L8.24215 7.90408C8.4551 7.8171 8.64993 7.68948 8.81674 7.52304C9.49353 6.84625 9.50229 5.75369 8.83615 5.08755C8.55436 4.80575 8.18047 4.63492 7.78348 4.60085C7.74942 4.20369 7.5784 3.82961 7.29678 3.54799C6.79545 3.04666 6.04489 2.91738 5.40181 3.19972C5.34999 3.12483 5.29176 3.05489 5.22768 2.9908C4.93343 2.69655 4.54012 2.53871 4.12152 2.54054C3.70386 2.54439 3.31002 2.71046 3.01246 3.0082C2.71491 3.30574 2.54884 3.6996 2.54499 4.11707C2.54114 4.5362 2.70099 4.92913 2.99525 5.22323C3.05933 5.2875 3.12928 5.34573 3.20417 5.39755L3.20435 5.39776ZM9.66326 8.57391C9.8156 8.42157 10.0223 8.33661 10.2367 8.33661C10.2534 8.33661 10.2701 8.33716 10.2867 8.33807C10.5196 8.35254 10.7355 8.46625 10.8891 8.66235L11.0981 8.89655L10.281 9.71358C10.1888 9.80587 10.1888 9.95528 10.281 10.0476C10.3272 10.0937 10.3876 10.1168 10.448 10.1168C10.5085 10.1168 10.5689 10.0937 10.615 10.0476L11.413 9.24961L12.7475 10.746L11.9039 11.5895C11.8116 11.6816 11.8116 11.8312 11.9039 11.9235C11.95 11.9696 12.0105 11.9927 12.0709 11.9927C12.1313 11.9927 12.1917 11.9696 12.2379 11.9235L13.0624 11.0992L15.3005 13.6088L14.4568 14.4525C14.3645 14.5446 14.3645 14.6942 14.4568 14.7865C14.5029 14.8327 14.5633 14.8557 14.6238 14.8557C14.6842 14.8557 14.7446 14.8327 14.7907 14.7865L15.6155 13.962L16.1675 14.5809C16.5176 14.9735 16.5006 15.5724 16.1287 15.9443C15.7627 16.3103 15.1866 16.3361 14.7893 16.004L12.6523 14.2173L13.3861 13.4834C13.4784 13.3911 13.4784 13.2417 13.3861 13.1494C13.2938 13.0571 13.1444 13.0571 13.0521 13.1494L12.2884 13.9131L10.2539 12.2121L10.9567 11.5093C11.049 11.417 11.049 11.2676 10.9567 11.1753C10.8644 11.0831 10.715 11.0831 10.6227 11.1753L9.8901 11.908L8.65471 10.8751C8.4705 10.7315 8.35679 10.5154 8.34251 10.2827C8.32823 10.0507 8.4141 9.82348 8.57835 9.65941L9.66326 8.57391ZM3.34685 3.34266C3.55651 3.13319 3.83318 3.01619 4.12633 3.01344C4.42296 3.01161 4.69047 3.12147 4.89429 3.32527C4.97742 3.4084 5.04645 3.50618 5.09918 3.61604C5.12811 3.67628 5.18121 3.72132 5.2453 3.74018C5.30902 3.75868 5.37842 3.74952 5.43536 3.71491C5.93215 3.41041 6.56037 3.47944 6.9634 3.88245C7.20748 4.12653 7.33601 4.46839 7.31606 4.82014C7.31221 4.88734 7.3373 4.95289 7.38491 5.0005C7.43233 5.04793 7.49807 5.07173 7.56545 5.06935C7.91701 5.04958 8.25887 5.17775 8.50295 5.42183C8.98487 5.90375 8.97629 6.69678 8.48354 7.18916C8.31197 7.36073 8.0992 7.47352 7.86573 7.52699L5.2779 4.93972C5.18561 4.84743 5.0362 4.84743 4.94392 4.93972C4.85163 5.03201 4.85163 5.18142 4.94392 5.2737L7.53137 7.86116C7.4779 8.0948 7.36511 8.30757 7.19354 8.47897C6.70079 8.97191 5.90795 8.97997 5.42602 8.49838C5.18195 8.2543 5.05341 7.91263 5.07337 7.56069C5.07721 7.49349 5.05213 7.42794 5.00452 7.38033C4.9602 7.33602 4.89996 7.31111 4.83752 7.31111C4.83295 7.31111 4.82873 7.3113 4.82416 7.31148C4.47259 7.33144 4.13092 7.2029 3.88684 6.95882C3.48383 6.5558 3.41481 5.92738 3.7193 5.43079C3.75428 5.37385 3.76343 5.30481 3.74457 5.24073C3.72571 5.17664 3.68048 5.12354 3.62043 5.09461C3.51056 5.04187 3.41279 4.97284 3.32966 4.88971C3.12586 4.68591 3.01527 4.41327 3.01783 4.12195C3.02058 3.82879 3.13738 3.55215 3.34685 3.34266Z" fill="black" fill-opacity="0.6"/>
<path d="M18.8851 5.67901C19.1563 5.75555 19.3689 5.92364 19.4998 6.16534C19.678 6.49419 19.6926 6.94243 19.5408 7.42749C19.502 7.552 19.5712 7.68439 19.6957 7.72339C19.7192 7.73072 19.743 7.7342 19.7662 7.7342C19.8667 7.7342 19.9599 7.66938 19.9916 7.5683C20.1817 6.96057 20.1546 6.38232 19.9151 5.94033C19.7246 5.58877 19.4044 5.33461 19.0131 5.22441C18.8884 5.18925 18.7571 5.26213 18.7218 5.38774C18.6865 5.51317 18.7595 5.64372 18.8851 5.67906V5.67901Z" fill="black" fill-opacity="0.6"/>
<path d="M18.0939 3.00473C18.2118 2.94888 18.2619 2.80808 18.2061 2.69016C18.1504 2.57224 18.0098 2.52225 17.8915 2.57791C17.0965 2.95456 16.9158 3.8254 16.8865 4.39559C16.2249 3.94515 15.4484 3.80871 14.6912 4.02553C14.026 4.21614 13.5014 4.63584 13.1742 5.23936C12.7551 6.01261 12.7077 7.03453 13.0405 8.11706C13.678 10.1891 15.3925 11.5325 16.8607 11.1114C16.9524 11.085 17.0436 11.0515 17.1329 11.0109C17.2221 11.0513 17.3133 11.085 17.405 11.1114C17.587 11.1636 17.7724 11.1885 17.9595 11.1885C19.2821 11.1883 20.6671 9.93237 21.2252 8.11709C21.5581 7.03456 21.5106 6.01249 21.0915 5.23938C20.7643 4.63587 20.2399 4.2162 19.5745 4.02556C18.8095 3.80674 18.0247 3.94938 17.3584 4.41154C17.3835 3.95231 17.5215 3.2759 18.0939 3.00473ZM19.4448 4.47947C19.9853 4.63437 20.4114 4.97475 20.6767 5.46421C21.0349 6.12506 21.0695 7.0177 20.7741 7.97807C20.2122 9.80582 18.7587 11.0077 17.5355 10.6571C17.4368 10.6289 17.3385 10.589 17.2435 10.5388C17.2091 10.5207 17.1712 10.5115 17.1334 10.5115C17.0955 10.5115 17.058 10.5207 17.0234 10.5388C16.928 10.589 16.8297 10.6287 16.7311 10.6571C15.508 11.0081 14.0547 9.80601 13.4926 7.97807C13.1972 7.0177 13.2316 6.12506 13.59 5.46421C13.8551 4.97479 14.2812 4.63439 14.8217 4.47947C15.5755 4.26322 16.3583 4.478 16.9693 5.06831C16.9708 5.06959 16.9726 5.06996 16.9739 5.07124C16.9911 5.08717 17.0113 5.09889 17.0325 5.10914C17.0378 5.1117 17.0422 5.1161 17.0477 5.1183C17.0744 5.12873 17.1032 5.13459 17.133 5.13459C17.1429 5.13459 17.153 5.13404 17.163 5.13276C17.1726 5.13148 17.1803 5.12617 17.1892 5.12397C17.2052 5.12013 17.2202 5.11573 17.2352 5.10841C17.2495 5.10145 17.2617 5.09284 17.2742 5.08332C17.2817 5.07765 17.2905 5.0749 17.2974 5.06831C17.9081 4.47815 18.6907 4.26356 19.4447 4.47947H19.4448Z" fill="black" fill-opacity="0.6"/>
<path d="M6.39201 14.887C6.56614 14.887 6.9283 14.887 6.9283 16.1625C6.9283 16.2929 7.03395 16.3987 7.16451 16.3987C7.29488 16.3987 7.40072 16.2931 7.40072 16.1625C7.40072 15.6846 7.40072 14.4148 6.39197 14.4148C6.2616 14.4148 6.15576 14.5204 6.15576 14.651C6.15576 14.7812 6.26145 14.887 6.39201 14.887Z" fill="black" fill-opacity="0.6"/>
<path d="M5.3533 21.4074C5.44082 21.4074 5.52981 21.3999 5.61971 21.3849C5.71328 21.3692 5.80374 21.3437 5.8909 21.3128C6.07858 21.3968 6.27926 21.445 6.49549 21.445C6.71631 21.445 6.92103 21.3952 7.11199 21.3076C7.20391 21.3415 7.29967 21.3684 7.39873 21.3851C7.48882 21.4001 7.57763 21.4076 7.66515 21.4076C8.89215 21.4076 9.87231 19.9371 10.3176 17.391C10.5795 15.8943 10.4945 14.9046 10.0505 14.2766C9.77032 13.8805 9.3391 13.6311 8.76853 13.535C8.42667 13.4777 8.11411 13.491 7.83431 13.5689C7.56076 13.3072 7.19892 13.1378 6.72816 13.095C6.74995 12.6264 6.70802 11.3958 5.72128 10.9283C5.60373 10.8725 5.46237 10.9228 5.40671 11.0405C5.35086 11.1585 5.40122 11.2993 5.51895 11.3551C6.25798 11.705 6.27242 12.7392 6.25447 13.0955C5.79066 13.1393 5.43359 13.3065 5.16223 13.5636C4.88794 13.4911 4.58272 13.4791 4.24944 13.535C3.67887 13.6311 3.24767 13.8805 2.9675 14.2766C2.52347 14.9046 2.43852 15.8941 2.70035 17.391C3.14584 19.937 4.12619 21.4074 5.35319 21.4074L5.3533 21.4074ZM8.69023 14.0007C9.13848 14.076 9.45725 14.2554 9.66491 14.5491C10.0267 15.0605 10.0881 15.9634 9.85259 17.3094C9.5371 19.113 8.79242 20.9633 7.63132 20.9293C8.30553 20.2131 8.68526 18.7783 8.68526 16.7988C8.68526 15.8019 8.60066 14.7223 8.16031 13.9839C8.3218 13.9641 8.49613 13.9681 8.69023 14.0007ZM6.49536 13.5517C7.34459 13.5517 8.2129 13.9375 8.2129 16.7988C8.2129 18.8166 7.76173 20.9725 6.49536 20.9725C5.2288 20.9725 4.77762 18.8164 4.77762 16.7988C4.77762 13.9376 5.64589 13.5517 6.49536 13.5517ZM3.35366 14.5491C3.5613 14.2554 3.88006 14.0759 4.32833 14.0007C4.51198 13.9698 4.67787 13.965 4.83223 13.9809C4.3904 14.7196 4.30545 15.8004 4.30545 16.7987C4.30545 18.7798 4.68576 20.2153 5.36089 20.9308C4.21536 20.9367 3.47909 19.0993 3.16583 17.3092C2.93054 15.9634 2.99188 15.0605 3.35369 14.5491L3.35366 14.5491Z" fill="black" fill-opacity="0.6"/>
<path d="M15.2035 20.8633C15.9784 20.0884 15.9802 18.8293 15.2075 18.0566C14.506 17.355 12.6305 16.6387 11.8047 17.4647C10.9789 18.2905 11.695 20.1658 12.3966 20.8675C12.7823 21.2533 13.2891 21.4459 13.7963 21.4459C14.3055 21.4458 14.8154 21.2515 15.2035 20.8633ZM12.1388 17.7985C12.3034 17.6338 12.5569 17.5644 12.8484 17.5644C13.5359 17.5644 14.4343 17.9512 14.8737 18.3904C15.4622 18.9789 15.4604 19.9386 14.8697 20.5293C14.279 21.12 13.3193 21.1218 12.7308 20.5333C12.1049 19.9076 11.5862 18.3509 12.1388 17.7985Z" fill="black" fill-opacity="0.6"/>
<path d="M21.1871 18.4234C21.4067 17.9343 21.4944 17.2272 21.416 16.5779C21.3217 15.7953 21.0069 15.2466 20.5302 15.0327C19.4648 14.5548 17.9667 15.8907 17.5605 16.7964C17.3437 17.2794 17.3287 17.8183 17.5181 18.3136C17.7072 18.8087 18.0782 19.2009 18.5625 19.4182C18.8265 19.5367 19.103 19.5927 19.3751 19.5927C20.1333 19.5924 20.8581 19.1571 21.1871 18.4234ZM18.7559 18.9869C18.3865 18.8212 18.1034 18.522 17.9592 18.1446C17.8149 17.7674 17.8264 17.357 17.9914 16.9893C18.3076 16.2848 19.3156 15.404 20.0409 15.404C20.1466 15.404 20.2464 15.4229 20.337 15.4635C20.6521 15.6049 20.8746 16.0317 20.9473 16.6343C21.0149 17.1948 20.94 17.8212 20.7565 18.2301C20.4156 18.9894 19.5181 19.3289 18.7559 18.9869Z" fill="black" fill-opacity="0.6"/>
</svg>
