<svg width="24" height="24" viewBox="0 0 24 24" fill="none" xmlns="http://www.w3.org/2000/svg">
<path d="M17.9451 12.4808H16.7445V11.2802C16.7445 11.1496 16.6387 11.0439 16.5083 11.0439C16.3779 11.0439 16.2721 11.1496 16.2721 11.2802V12.4808H15.0717C14.9413 12.4808 14.8354 12.5864 14.8354 12.717C14.8354 12.8475 14.9413 12.9532 15.0717 12.9532H16.2721V14.1538C16.2721 14.2843 16.3779 14.39 16.5083 14.39C16.6387 14.39 16.7445 14.2843 16.7445 14.1538V12.9532H17.9451C18.0755 12.9532 18.1813 12.8475 18.1813 12.717C18.1813 12.5862 18.0757 12.4808 17.9451 12.4808Z" fill="black" fill-opacity="0.6"/>
<path d="M19.6484 8.42239C18.6729 8.03421 17.6656 8.26089 16.9011 8.9878C16.7171 8.73346 16.5199 8.49214 16.3101 8.26414L16.9936 7.44861C17.1337 7.28162 17.2003 7.07013 17.1811 6.85334C17.1621 6.63655 17.0595 6.43989 16.8925 6.2998L16.5056 5.97552C16.3386 5.83544 16.1268 5.77007 15.9104 5.78802C15.6934 5.80706 15.4969 5.9096 15.3568 6.07659L14.665 6.9022C13.5005 6.18056 12.1538 5.76768 10.7493 5.72554V4.97188H11.5359C12.0155 4.97188 12.4057 4.58169 12.4057 4.10212V3.46181C12.4057 2.98242 12.0155 2.59204 11.5359 2.59204H9.49027C9.01074 2.59204 8.62051 2.98224 8.62051 3.46181V4.10212C8.62051 4.58151 9.0107 4.97188 9.49027 4.97188H10.2769V5.72428C8.84391 5.76676 7.50596 6.19211 6.36245 6.90346L5.66959 6.07635C5.52951 5.90936 5.33304 5.80682 5.11604 5.78778C4.89997 5.76965 4.68757 5.83521 4.52077 5.97528L4.13387 6.29956C3.96688 6.43964 3.86434 6.63611 3.8453 6.85311C3.82626 7.07011 3.89272 7.28158 4.03262 7.44838L4.71709 8.26503C3.42254 9.6702 2.62988 11.5448 2.62988 13.6018C2.62988 17.9487 6.16637 21.4852 10.5133 21.4852C13.7012 21.4852 16.5611 19.5545 17.7991 16.5671C17.8009 16.5623 17.8002 16.5574 17.8018 16.5526C19.0717 15.7883 20.9505 14.3308 21.426 12.1956C21.8571 10.2593 20.8068 8.8823 19.6484 8.42218L19.6484 8.42239ZM9.09264 4.10239V3.46208C9.09264 3.2429 9.27098 3.06456 9.49016 3.06456H11.5358C11.755 3.06456 11.9334 3.2429 11.9334 3.46208V4.10239C11.9334 4.32157 11.755 4.49991 11.5358 4.49991H9.49016C9.27098 4.49955 9.09264 4.32139 9.09264 4.10239ZM15.7184 6.37986C15.7774 6.30955 15.8601 6.26652 15.9515 6.25828C16.0429 6.2526 16.1319 6.27842 16.2024 6.33738L16.5895 6.66166C16.6596 6.72044 16.7028 6.80338 16.7109 6.89457C16.7189 6.98594 16.6907 7.07493 16.6319 7.14506L15.9784 7.92455C15.6908 7.64769 15.385 7.39298 15.0615 7.16428L15.7184 6.37986ZM4.31514 6.89473C4.32319 6.80337 4.36641 6.7206 4.43672 6.66182L4.82362 6.33754C4.89375 6.27858 4.98311 6.25203 5.07411 6.25844C5.16548 6.2665 5.24825 6.30971 5.30703 6.38002L5.96656 7.1672C5.64155 7.39754 5.33501 7.65132 5.04903 7.92671L4.39386 7.14521C4.33526 7.0749 4.30745 6.98611 4.31514 6.89473ZM10.513 21.013C6.42639 21.013 3.10201 17.6884 3.10201 13.6016C3.1022 9.51505 6.42648 6.1902 10.513 6.1902C12.9298 6.1902 15.1878 7.3685 16.5776 9.34456C16.5548 9.37368 16.5311 9.40151 16.509 9.43172C15.9285 8.64216 15.1241 8.22122 14.2798 8.23622C13.173 7.4573 11.8731 7.04382 10.5133 7.04382C6.89773 7.04382 3.95599 9.98541 3.95599 13.6012C3.95581 17.217 6.8974 20.1585 10.5129 20.1585C12.7821 20.1585 14.9094 18.9628 16.0985 17.0327C16.2765 17.1191 16.3918 17.1682 16.4175 17.1788C16.4468 17.1911 16.4775 17.1969 16.5086 17.1969C16.5398 17.1969 16.5705 17.1911 16.5998 17.1788C16.6335 17.1647 16.8223 17.084 17.1054 16.9393C15.8326 19.4319 13.3071 21.0121 10.5129 21.0121L10.513 21.013ZM11.5913 12.1958C12.1285 14.6099 14.4596 16.1577 15.6765 16.8169C14.5697 18.5899 12.6064 19.6872 10.5128 19.6872C7.15736 19.6872 4.42792 16.9575 4.42792 13.6019C4.42792 10.2463 7.15764 7.51658 10.5128 7.51658C11.6034 7.51658 12.6516 7.80442 13.5798 8.34805C13.5091 8.36984 13.4386 8.39437 13.3681 8.4222C12.2102 8.88235 11.1599 10.2597 11.5911 12.1955L11.5913 12.1958ZM20.9649 12.0933C20.3562 14.8269 17.0977 16.4333 16.5085 16.7034C15.9187 16.4336 12.6614 14.8304 12.0524 12.0933C11.6814 10.4272 12.565 9.25023 13.5431 8.86149C13.782 8.76665 14.0499 8.7097 14.3288 8.7097C15.0056 8.7097 15.7484 9.04441 16.3062 9.98025C16.3911 10.1231 16.6266 10.1231 16.7119 9.98025C17.4993 8.65879 18.6551 8.53607 19.4748 8.86148C20.4522 9.24985 21.3359 10.4272 20.9649 12.0933L20.9649 12.0933Z" fill="black" fill-opacity="0.6"/>
<path d="M10.748 12.5066V8.61438C10.748 8.48383 10.6422 8.37817 10.5118 8.37817C10.3815 8.37817 10.2756 8.48383 10.2756 8.61438V12.5076C9.77115 12.6167 9.3916 13.0653 9.3916 13.6022C9.3916 14.2202 9.89443 14.723 10.5124 14.723C11.1304 14.723 11.6334 14.2202 11.6334 13.6022C11.6337 13.0646 11.2534 12.6154 10.748 12.5067L10.748 12.5066ZM10.5127 14.2504C10.1551 14.2504 9.86418 13.9596 9.86418 13.6018C9.86418 13.244 10.1551 12.9532 10.5127 12.9532C10.8705 12.9532 11.1615 13.244 11.1615 13.6018C11.1615 13.9596 10.8704 14.2504 10.5127 14.2504Z" fill="black" fill-opacity="0.6"/>
</svg>
