<svg width="24" height="24" viewBox="0 0 24 24" fill="none" xmlns="http://www.w3.org/2000/svg">
<path d="M13.2989 14.952C13.2989 15.6693 12.7174 16.2508 12.0001 16.2508C11.2827 16.2508 10.7012 15.6693 10.7012 14.952C10.7012 14.2346 11.2827 13.6531 12.0001 13.6531C12.7174 13.6531 13.2989 14.2346 13.2989 14.952Z" fill="black" fill-opacity="0.6"/>
<path d="M10.2948 10.7531C10.0562 10.916 9.67844 11.1119 9.03607 11.1191C8.39848 11.1074 8.05132 10.9041 7.81751 10.7388L7.40186 11.3811C7.68054 11.5984 8.21429 11.9077 9.03367 11.9196C9.86495 11.9125 10.4223 11.6032 10.708 11.3906L10.2948 10.7531Z" fill="black" fill-opacity="0.6"/>
<path d="M16.1825 10.7531C15.9439 10.916 15.5661 11.1119 14.9238 11.1191C14.2862 11.1074 13.939 10.9041 13.7052 10.7388L13.2896 11.3811C13.5682 11.5984 14.102 11.9077 14.9214 11.9196C15.7526 11.9125 16.31 11.6032 16.5957 11.3906L16.1825 10.7531Z" fill="black" fill-opacity="0.6"/>
<path d="M18.7163 8.11958H17.2946C17.4104 7.99909 17.519 7.86927 17.6323 7.73231L17.7127 7.63545L18.6645 6.43812V5.76978H15.9816V6.66481H17.283C17.1389 6.81825 17.0184 6.95521 16.8697 7.1277L15.873 8.37701V9.01934H18.7141V8.11957L18.7163 8.11958Z" fill="black" fill-opacity="0.6"/>
<path d="M19.2837 6.22583L20.5094 4.68847C20.7313 4.42626 20.9085 4.2351 21.1305 3.9965V3.98002H19.4183V3.02588H22.6041V3.75099L21.4328 5.22464C21.2179 5.47971 21.0195 5.72527 20.7952 5.94024V5.95672H22.6656V6.92023H19.2837V6.22583Z" fill="black" fill-opacity="0.6"/>
<path d="M18.7163 9.72776H17.8306C18.1069 10.4314 18.258 11.199 18.258 11.9996C18.258 15.4498 15.4501 18.2578 11.9997 18.2578C8.54945 18.258 5.74141 15.4501 5.74141 12C5.74141 8.5496 8.54931 5.74174 11.9997 5.74174C13.1994 5.74174 14.3211 6.08177 15.2729 6.66992V5.58832C14.2903 5.08296 13.178 4.79712 11.9997 4.79712C8.02741 4.79712 4.79688 8.02784 4.79688 11.9999C4.79669 15.9722 8.02741 19.2027 11.9997 19.2027C15.9718 19.2027 19.2025 15.972 19.2025 11.9999C19.2025 11.2063 19.0727 10.4437 18.8341 9.72813L18.7163 9.72776Z" fill="black" fill-opacity="0.6"/>
</svg>
